# xmcd
#
# Track frame offsets:
#	182
#	18080
#	29782
#	42572
#	57657
#	72255
#	89442
#	104032
#	123645
#	140435
#	155805
#	170640
#
# Disc length: 2448 seconds
#
# Revision: 0
# Processed by: cddbd v1.4PL0 Copyright (c) Steve Scherf et al.
# Submitted via: audiograbber 1.80.04
#
DISCID=ba098e0c
DTITLE=Carl Sonny Leyland - They Call Me The Boogie Woogie Man
DYEAR=1996
DGENRE=Boogie Woogie
TTITLE0=Witches' Kitchen
TTITLE1=Dollar In My Pocket
TTITLE2=8 To The Bar
TTITLE3=The Black Swan
TTITLE4=Ask Any Millionaire
TTITLE5=Accept No Substitute
TTITLE6=I Like It
TTITLE7=Air Conditioner Blues
TTITLE8=They Call Me The Boogie Woogie Man
TTITLE9=Creepy Crawly
TTITLE10=Night And Day
TTITLE11=Jam Boogie
EXTD=
EXTT0=
EXTT1=
EXTT2=
EXTT3=
EXTT4=
EXTT5=
EXTT6=
EXTT7=
EXTT8=
EXTT9=
EXTT10=
EXTT11=
PLAYORDER=
